{
    "asset": {
        "generator": "COLLADA2GLTF",
        "version": "2.0"
    },
    "scenes": [
        {
            "nodes": [
                0
            ]
        }
    ],
    "scene": 0,
    "nodes": [
        {
            "children": [
                1
            ],
            "matrix": [
                1.0,
                0.0,
                0.0,
                0.0,
                0.0,
                0.0,
                -1.0,
                0.0,
                0.0,
                1.0,
                0.0,
                0.0,
                0.0,
                0.0,
                0.0,
                1.0
            ],
            "name": "Z_UP"
        },
        {
            "children": [
                13,
                10,
                7,
                6,
                5,
                2
            ],
            "matrix": [
                1.0,
                0.0,
                0.0,
                0.0,
                0.0,
                1.0,
                0.0,
                0.0,
                0.0,
                0.0,
                1.0,
                0.0,
                0.0,
                -0.04600000381469727,
                0.014000000432133677,
                1.0
            ],
            "name": "Glasses"
        },
        {
            "children": [
                4,
                3
            ],
            "matrix": [
                1.0,
                0.0,
                0.0,
                0.0,
                0.0,
                1.0,
                0.0,
                0.0,
                0.0,
                0.0,
                1.0,
                0.0,
                0.00003143359936075285,
                0.06035381928086281,
                -0.03132040798664093,
                1.0
            ],
            "name": "TEMPLES"
        },
        {
            "mesh": 0,
            "matrix": [
                1.0,
                0.0,
                0.0,
                0.0,
                0.0,
                1.0,
                0.0,
                0.0,
                0.0,
                0.0,
                1.0,
                0.0,
                -0.07398510724306107,
                -0.02807234972715378,
                0.04817546904087067,
                1.0
            ],
            "name": "METAL_RIGHT"
        },
        {
            "mesh": 1,
            "matrix": [
                1.0,
                0.0,
                0.0,
                0.0,
                0.0,
                1.0,
                0.0,
                0.0,
                0.0,
                0.0,
                1.0,
                0.0,
                0.07392224669456482,
                -0.02807234972715378,
                0.04817546904087067,
                1.0
            ],
            "name": "METAL_LEFT"
        },
        {
            "mesh": 2,
            "matrix": [
                1.0,
                0.0,
                0.0,
                0.0,
                0.0,
                1.0,
                0.0,
                0.0,
                0.0,
                0.0,
                1.0,
                0.0,
                -0.012109959498047829,
                -0.013151910156011582,
                0.016692260280251504,
                1.0
            ],
            "name": "LENS_RIGHT"
        },
        {
            "mesh": 3,
            "matrix": [
                1.0,
                0.0,
                0.0,
                0.0,
                0.0,
                1.0,
                0.0,
                0.0,
                0.0,
                0.0,
                1.0,
                0.0,
                0.01210974995046854,
                -0.013151910156011582,
                0.016692649573087693,
                1.0
            ],
            "name": "LENS_LEFT"
        },
        {
            "mesh": 4,
            "children": [
                9,
                8
            ],
            "matrix": [
                1.0,
                0.0,
                0.0,
                0.0,
                0.0,
                1.0,
                0.0,
                0.0,
                0.0,
                0.0,
                1.0,
                0.0,
                -0.012109959498047829,
                -0.013151910156011582,
                0.016692260280251504,
                1.0
            ],
            "name": "FRAME_RIGHT"
        },
        {
            "mesh": 5,
            "matrix": [
                1.0,
                0.0,
                0.0,
                0.0,
                0.0,
                1.0,
                0.0,
                0.0,
                0.0,
                0.0,
                1.0,
                0.0,
                -0.06184371933341026,
                0.04543337970972061,
                0.00016279499686788768,
                1.0
            ],
            "name": "RIGHT_TO_TEMPLE"
        },
        {
            "mesh": 5,
            "matrix": [
                1.0,
                0.0,
                0.0,
                0.0,
                0.0,
                1.0,
                0.0,
                0.0,
                0.0,
                0.0,
                1.0,
                0.0,
                0.00403236411511898,
                0.0037494339048862459,
                -0.011896450072526932,
                1.0
            ],
            "name": "RIGHT_TO_PAD"
        },
        {
            "mesh": 6,
            "children": [
                12,
                11
            ],
            "matrix": [
                1.0,
                0.0,
                0.0,
                0.0,
                0.0,
                1.0,
                0.0,
                0.0,
                0.0,
                0.0,
                1.0,
                0.0,
                0.01210974995046854,
                -0.013151910156011582,
                0.016692649573087693,
                1.0
            ],
            "name": "FRAME_LEFT"
        },
        {
            "mesh": 5,
            "matrix": [
                1.0,
                0.0,
                0.0,
                0.0,
                0.0,
                1.0,
                0.0,
                0.0,
                0.0,
                0.0,
                1.0,
                0.0,
                0.06184393912553787,
                0.04543337970972061,
                0.00016240999684669075,
                1.0
            ],
            "name": "LEFT_TO_TEMPLE"
        },
        {
            "mesh": 5,
            "matrix": [
                1.0,
                0.0,
                0.0,
                0.0,
                0.0,
                1.0,
                0.0,
                0.0,
                0.0,
                0.0,
                1.0,
                0.0,
                -0.004032166674733162,
                0.003749407827854157,
                -0.011896819807589054,
                1.0
            ],
            "name": "LEFT_TO_PAD"
        },
        {
            "mesh": 7,
            "children": [
                15,
                14
            ],
            "matrix": [
                1.0,
                0.0,
                0.0,
                0.0,
                0.0,
                1.0,
                0.0,
                0.0,
                0.0,
                0.0,
                1.0,
                0.0,
                -0.000010537900379858913,
                -0.011982589960098269,
                0.016367489472031598,
                1.0
            ],
            "name": "BRIDGE"
        },
        {
            "mesh": 5,
            "matrix": [
                1.0,
                0.0,
                0.0,
                0.0,
                0.0,
                1.0,
                0.0,
                0.0,
                0.0,
                0.0,
                1.0,
                0.0,
                -0.012099419720470906,
                -0.0011693239212036133,
                0.00032477499917149544,
                1.0
            ],
            "name": "BRIDGE_TO_RIGHT"
        },
        {
            "mesh": 5,
            "matrix": [
                1.0,
                0.0,
                0.0,
                0.0,
                0.0,
                1.0,
                0.0,
                0.0,
                0.0,
                0.0,
                1.0,
                0.0,
                0.012120289728045464,
                -0.0011693239212036133,
                0.0003251679881941527,
                1.0
            ],
            "name": "BRIDGE_TO_LEFT"
        }
    ],
    "meshes": [
        {
            "primitives": [
                {
                    "attributes": {
                        "NORMAL": 1,
                        "POSITION": 2,
                        "TEXCOORD_0": 3
                    },
                    "indices": 0,
                    "mode": 4
                }
            ],
            "name": "TEMPLE_RIGHT.003"
        },
        {
            "primitives": [
                {
                    "attributes": {
                        "NORMAL": 5,
                        "POSITION": 6,
                        "TEXCOORD_0": 7
                    },
                    "indices": 4,
                    "mode": 4
                }
            ],
            "name": "TEMPLE_LEFT.003"
        },
        {
            "primitives": [
                {
                    "attributes": {
                        "NORMAL": 9,
                        "POSITION": 10,
                        "TEXCOORD_0": 11
                    },
                    "indices": 8,
                    "mode": 4
                }
            ],
            "name": "LENS_RIGHT"
        },
        {
            "primitives": [
                {
                    "attributes": {
                        "NORMAL": 13,
                        "POSITION": 14,
                        "TEXCOORD_0": 15
                    },
                    "indices": 12,
                    "mode": 4
                }
            ],
            "name": "LENS_LEFT"
        },
        {
            "primitives": [
                {
                    "attributes": {
                        "NORMAL": 17,
                        "POSITION": 18,
                        "TEXCOORD_0": 19
                    },
                    "indices": 16,
                    "mode": 4
                }
            ],
            "name": "FRAME_RIGHT"
        },
        {
            "primitives": [
                {
                    "attributes": {
                        "NORMAL": 21,
                        "POSITION": 22
                    },
                    "indices": 20,
                    "mode": 4
                }
            ],
            "name": "tetra"
        },
        {
            "primitives": [
                {
                    "attributes": {
                        "NORMAL": 24,
                        "POSITION": 25,
                        "TEXCOORD_0": 26
                    },
                    "indices": 23,
                    "mode": 4
                }
            ],
            "name": "FRAME_LEFT"
        },
        {
            "primitives": [
                {
                    "attributes": {
                        "NORMAL": 28,
                        "POSITION": 29,
                        "TEXCOORD_0": 30
                    },
                    "indices": 27,
                    "mode": 4
                }
            ],
            "name": "BRIDGE"
        }
    ],
    "accessors": [
        {
            "bufferView": 0,
            "byteOffset": 0,
            "componentType": 5123,
            "count": 36,
            "max": [
                23
            ],
            "min": [
                0
            ],
            "type": "SCALAR"
        },
        {
            "bufferView": 1,
            "byteOffset": 0,
            "componentType": 5126,
            "count": 24,
            "max": [
                1.0,
                1.0,
                1.0
            ],
            "min": [
                -1.0,
                -1.0,
                -1.0
            ],
            "type": "VEC3"
        },
        {
            "bufferView": 1,
            "byteOffset": 288,
            "componentType": 5126,
            "count": 24,
            "max": [
                0.0011281960178166628,
                0.10466989874839784,
                0.001128493924625218
            ],
            "min": [
                -0.0011288520181551576,
                -0.00042321899672970176,
                -0.001128493924625218
            ],
            "type": "VEC3"
        },
        {
            "bufferView": 2,
            "byteOffset": 0,
            "componentType": 5126,
            "count": 24,
            "max": [
                0.8750000596046448,
                1.0
            ],
            "min": [
                0.125,
                0.0
            ],
            "type": "VEC2"
        },
        {
            "bufferView": 0,
            "byteOffset": 72,
            "componentType": 5123,
            "count": 36,
            "max": [
                23
            ],
            "min": [
                0
            ],
            "type": "SCALAR"
        },
        {
            "bufferView": 1,
            "byteOffset": 576,
            "componentType": 5126,
            "count": 24,
            "max": [
                1.0,
                1.0,
                1.0
            ],
            "min": [
                -1.0,
                -1.0,
                -1.0
            ],
            "type": "VEC3"
        },
        {
            "bufferView": 1,
            "byteOffset": 864,
            "componentType": 5126,
            "count": 24,
            "max": [
                0.001128493924625218,
                0.10466989874839784,
                0.001128493924625218
            ],
            "min": [
                -0.001128493924625218,
                -0.00042321797809563577,
                -0.001128493924625218
            ],
            "type": "VEC3"
        },
        {
            "bufferView": 2,
            "byteOffset": 192,
            "componentType": 5126,
            "count": 24,
            "max": [
                0.8750000596046448,
                1.0
            ],
            "min": [
                0.125,
                0.0
            ],
            "type": "VEC2"
        },
        {
            "bufferView": 0,
            "byteOffset": 144,
            "componentType": 5123,
            "count": 36,
            "max": [
                23
            ],
            "min": [
                0
            ],
            "type": "SCALAR"
        },
        {
            "bufferView": 1,
            "byteOffset": 1152,
            "componentType": 5126,
            "count": 24,
            "max": [
                0.90704083442688,
                0.9070407152175904,
                1.0
            ],
            "min": [
                -0.90704083442688,
                -0.9070407152175904,
                -1.0
            ],
            "type": "VEC3"
        },
        {
            "bufferView": 1,
            "byteOffset": 1440,
            "componentType": 5126,
            "count": 24,
            "max": [
                0.0012558100279420617,
                0.026289820671081544,
                0.004243731033056974
            ],
            "min": [
                -0.05075906962156296,
                0.0007470919517800212,
                -0.021662769839167596
            ],
            "type": "VEC3"
        },
        {
            "bufferView": 2,
            "byteOffset": 384,
            "componentType": 5126,
            "count": 24,
            "max": [
                0.8750000596046448,
                1.0
            ],
            "min": [
                0.125,
                0.0
            ],
            "type": "VEC2"
        },
        {
            "bufferView": 0,
            "byteOffset": 216,
            "componentType": 5123,
            "count": 36,
            "max": [
                27
            ],
            "min": [
                0
            ],
            "type": "SCALAR"
        },
        {
            "bufferView": 1,
            "byteOffset": 1728,
            "componentType": 5126,
            "count": 28,
            "max": [
                0.90704083442688,
                0.9070407152175904,
                1.0
            ],
            "min": [
                -0.90704083442688,
                -0.9070407152175904,
                -1.0
            ],
            "type": "VEC3"
        },
        {
            "bufferView": 1,
            "byteOffset": 2064,
            "componentType": 5126,
            "count": 28,
            "max": [
                0.05071276053786278,
                0.026289820671081544,
                0.004243372939527035
            ],
            "min": [
                -0.0013021229533478618,
                0.0007470919517800212,
                -0.02166312001645565
            ],
            "type": "VEC3"
        },
        {
            "bufferView": 2,
            "byteOffset": 576,
            "componentType": 5126,
            "count": 28,
            "max": [
                0.8750000596046448,
                1.0
            ],
            "min": [
                0.125,
                0.0
            ],
            "type": "VEC2"
        },
        {
            "bufferView": 0,
            "byteOffset": 288,
            "componentType": 5123,
            "count": 36,
            "max": [
                31
            ],
            "min": [
                0
            ],
            "type": "SCALAR"
        },
        {
            "bufferView": 1,
            "byteOffset": 2400,
            "componentType": 5126,
            "count": 32,
            "max": [
                0.6169080138206482,
                0.8724393248558044,
                0.7071070075035095
            ],
            "min": [
                -0.6169075965881348,
                -0.8724393248558044,
                -0.7071070075035095
            ],
            "type": "VEC3"
        },
        {
            "bufferView": 1,
            "byteOffset": 2784,
            "componentType": 5126,
            "count": 32,
            "max": [
                -0.04636900871992111,
                0.04902327060699463,
                0.002105831867083907
            ],
            "min": [
                -0.0645984411239624,
                0.020982379093766217,
                -0.002105831867083907
            ],
            "type": "VEC3"
        },
        {
            "bufferView": 2,
            "byteOffset": 800,
            "componentType": 5126,
            "count": 32,
            "max": [
                0.8750000596046448,
                1.0
            ],
            "min": [
                0.125,
                0.0
            ],
            "type": "VEC2"
        },
        {
            "bufferView": 0,
            "byteOffset": 360,
            "componentType": 5123,
            "count": 12,
            "max": [
                11
            ],
            "min": [
                0
            ],
            "type": "SCALAR"
        },
        {
            "bufferView": 1,
            "byteOffset": 3168,
            "componentType": 5126,
            "count": 12,
            "max": [
                0.555342435836792,
                0.8305104374885559,
                0.8638209700584412
            ],
            "min": [
                -0.5490769743919373,
                -0.8305104970932007,
                -0.8357717394828796
            ],
            "type": "VEC3"
        },
        {
            "bufferView": 1,
            "byteOffset": 3312,
            "componentType": 5126,
            "count": 12,
            "max": [
                2.1815799300384246e-7,
                2.64761013113457e-7,
                2.342300007285303e-7
            ],
            "min": [
                -1.990020024322803e-7,
                -2.64761013113457e-7,
                -2.6078399173457e-7
            ],
            "type": "VEC3"
        },
        {
            "bufferView": 0,
            "byteOffset": 384,
            "componentType": 5123,
            "count": 36,
            "max": [
                33
            ],
            "min": [
                0
            ],
            "type": "SCALAR"
        },
        {
            "bufferView": 1,
            "byteOffset": 3456,
            "componentType": 5126,
            "count": 34,
            "max": [
                0.6169078350067139,
                0.8724393248558044,
                0.7071070075035095
            ],
            "min": [
                -0.6169080138206482,
                -0.872438907623291,
                -0.7071071267127991
            ],
            "type": "VEC3"
        },
        {
            "bufferView": 1,
            "byteOffset": 3864,
            "componentType": 5126,
            "count": 34,
            "max": [
                0.06459891051054001,
                0.04902327060699463,
                0.002105474006384611
            ],
            "min": [
                0.046369489282369617,
                0.020982379093766217,
                -0.002106248866766691
            ],
            "type": "VEC3"
        },
        {
            "bufferView": 2,
            "byteOffset": 1056,
            "componentType": 5126,
            "count": 34,
            "max": [
                0.8750000596046448,
                1.0
            ],
            "min": [
                0.125,
                0.0
            ],
            "type": "VEC2"
        },
        {
            "bufferView": 0,
            "byteOffset": 456,
            "componentType": 5123,
            "count": 36,
            "max": [
                23
            ],
            "min": [
                0
            ],
            "type": "SCALAR"
        },
        {
            "bufferView": 1,
            "byteOffset": 4272,
            "componentType": 5126,
            "count": 24,
            "max": [
                1.0,
                0.7071068286895752,
                0.7071068286895752
            ],
            "min": [
                -1.0,
                -0.7071068286895752,
                -0.7071068286895752
            ],
            "type": "VEC3"
        },
        {
            "bufferView": 1,
            "byteOffset": 4560,
            "componentType": 5126,
            "count": 24,
            "max": [
                0.012484549544751645,
                0.0014141789870336652,
                0.0014141789870336652
            ],
            "min": [
                -0.012484549544751645,
                -0.0014141789870336652,
                -0.0014141789870336652
            ],
            "type": "VEC3"
        },
        {
            "bufferView": 2,
            "byteOffset": 1328,
            "componentType": 5126,
            "count": 24,
            "max": [
                0.8750000596046448,
                1.0
            ],
            "min": [
                0.125,
                0.0
            ],
            "type": "VEC2"
        }
    ],
    "bufferViews": [
        {
            "buffer": 0,
            "byteOffset": 6368,
            "byteLength": 528,
            "target": 34963
        },
        {
            "buffer": 0,
            "byteOffset": 0,
            "byteLength": 4848,
            "byteStride": 12,
            "target": 34962
        },
        {
            "buffer": 0,
            "byteOffset": 4848,
            "byteLength": 1520,
            "byteStride": 8,
            "target": 34962
        }
    ],
    "buffers": [
        {
            "byteLength": 6896,
            "uri": "data:application/octet-stream;base64,"
        }
    ]
}
